<?xml version="1.0" standalone="no"?><!DOCTYPE svg PUBLIC "-//W3C//DTD SVG 1.1//EN" "http://www.w3.org/Graphics/SVG/1.1/DTD/svg11.dtd"><svg t="1723808184384" class="icon" viewBox="0 0 1024 1024" version="1.1" xmlns="http://www.w3.org/2000/svg" p-id="1727" xmlns:xlink="http://www.w3.org/1999/xlink" width="200" height="200"><path d="M691.702176 988.267229a166.558468 166.558468 0 1 1 166.558468-166.558468 166.704316 166.704316 0 0 1-166.558468 166.558468z m0-289.362522a122.804054 122.804054 0 1 0 122.804054 122.804054 122.804054 122.804054 0 0 0-122.804054-122.804054z" p-id="1728" fill="#d4237a"></path><path d="M871.532816 1006.352387a21.731359 21.731359 0 0 1-15.459893-6.417314l-70.298757-70.15291a21.877207 21.877207 0 1 1 31.065633-30.919786l70.15291 70.15291A21.877207 21.877207 0 0 1 871.532816 1006.352387zM871.532816 677.610893a21.877207 21.877207 0 0 1-21.877207-21.877207v-83.862626a21.877207 21.877207 0 0 1 43.754414 0V656.317078a21.877207 21.877207 0 0 1-21.877207 21.293815zM531.561023 1024H133.541708a21.877207 21.877207 0 0 1-21.877207-21.877207v-430.251733a21.877207 21.877207 0 0 1 43.754413 0v408.374526h376.142109a21.877207 21.877207 0 1 1 0 43.754414zM515.080194 529.866823a175.017654 175.017654 0 0 1-153.140448-90.134092A175.017654 175.017654 0 0 1 33.781645 354.849169a21.439663 21.439663 0 0 1 1.020936-6.70901L142.438438 14.58568a21.731359 21.731359 0 0 1 20.710423-14.584805h703.862666a21.731359 21.731359 0 0 1 20.710422 14.584805L981.793938 304.094049a175.017654 175.017654 0 0 1-24.356623 155.619864 164.808291 164.808291 0 0 1-132.430025 70.15291 175.017654 175.017654 0 0 1-156.057409-90.134092A175.017654 175.017654 0 0 1 515.080194 529.866823z m-153.140448-160.43285a27.273584 27.273584 0 0 1 26.252648 20.127031 131.263241 131.263241 0 0 0 253.775599 0 26.690192 26.690192 0 0 1 26.1068-20.127031 27.565281 27.565281 0 0 1 26.398496 20.272879 131.263241 131.263241 0 0 0 128.929672 97.134798 121.199726 121.199726 0 0 0 97.572342-51.921904 131.263241 131.263241 0 0 0 18.376854-116.678436L850.530698 43.755289H179.62969L77.536058 358.203674a131.263241 131.263241 0 0 0 258.15104 30.628089 27.273584 27.273584 0 0 1 26.252648-20.12703z" p-id="1729" fill="#d4237a"></path></svg>